<svg width="24" height="24" viewBox="0 0 24 24" fill="none" xmlns="http://www.w3.org/2000/svg">
<rect width="24" height="24" rx="12" fill="white"/>
<path d="M18.0002 8.66667C18.0065 8.62021 18.0065 8.57312 18.0002 8.52667C17.9944 8.48753 17.9832 8.44938 17.9669 8.41333C17.9493 8.38075 17.9292 8.34955 17.9069 8.32C17.8815 8.27784 17.8501 8.23965 17.8135 8.20667L17.7335 8.16C17.695 8.1313 17.6523 8.10881 17.6069 8.09333H17.4735C17.4329 8.054 17.3855 8.02237 17.3335 8H14.0002C13.632 8 13.3335 8.29848 13.3335 8.66667C13.3335 9.03486 13.632 9.33333 14.0002 9.33333H15.8869L13.2202 12.4733L10.3402 10.76C10.0584 10.5924 9.69654 10.6546 9.48687 10.9067L6.15353 14.9067C6.04016 15.0427 5.98558 15.2183 6.00184 15.3946C6.0181 15.571 6.10386 15.7336 6.2402 15.8467C6.36014 15.9461 6.5111 16.0003 6.66687 16C6.86515 16.0003 7.05329 15.9124 7.1802 15.76L10.1469 12.2L12.9935 13.9067C13.2723 14.072 13.6295 14.0129 13.8402 13.7667L16.6669 10.4667V12C16.6669 12.3682 16.9653 12.6667 17.3335 12.6667C17.7017 12.6667 18.0002 12.3682 18.0002 12V8.66667Z" fill="#00AB55"/>
</svg>
